Patient4_TMGait_0pt6_01_right_37_EMG.mot
version=1
nRows=39
nColumns=33
inDegrees=no
endheader
time	1LAddLong	2LGlutMax	3LGlutMed	4LIliopsoas	5LSemiMemb	6LBicFemLong	7LRecFem	8LVastMed	9LVastLat	10LGasMed	11LTibAnt	12lTibPost	13LPeroneusLong	14LSol	15LExtDigLong	16LFlexDigLong	17RAddLong	18RGlutMax	19RGlutMed	20RIliopsoas	21RSemiMemb	22RBicFemLong	23RRecFem	24RVastMed	25RVastLat	26RGasMed	27RTibAnt	28RTibPost	29RPeroneusLong	30RSol	31RExtDigLong	32RFlexDigLong
44.45	-0.004883	-0.036926	-0.10529	0.001526	-0.069885	-0.046234	0.098114	-0.003815	-0.27954	-0.055389	-0.058899	0.001678	-0.23804	-0.11993	-0.097504	-0.004883	0.030212	0.046539	0.046539	-0.049286	0.004883	-0.009003	0.035553	-0.052643	-0.043335	0.001526	-0.16434	-0.006561	0.11841	-0.006256	-0.00351	-0.008698
44.451	0.022583	-0.050659	-0.035706	-0.002899	-0.024567	-0.11673	0.078888	0.002441	-0.16403	-0.053406	-0.027618	-0.001068	-0.12833	-0.11002	-0.047913	0.006256	0.016327	0.006409	0.23987	-0.13916	-0.016937	0.019073	0.057831	-0.056152	-0.033722	0.005188	0.15549	-0.003052	0.15045	-0.065765	0.001678	-0.013885
44.452	0.020447	0.014343	-0.009155	-0.003967	-0.018921	-0.095978	0.11002	-0.009155	-0.069122	-0.055084	0.10315	0.000763	0.14603	-0.082397	0.1442	-0.001221	0.000305	-0.047607	0.4686	-0.20126	-0.034637	0.044861	0.092468	-0.023804	-0.016174	-0.003052	0.1709	-0.005035	0.093079	-0.03891	0.002136	0.000763
44.453	0.020905	0.022278	0.09964	0.000763	0.010834	-0.10101	0.14496	0.000153	-0.059357	-0.089722	0.037079	0.001526	-0.12482	0.010681	0.5043	-0.000153	0.018005	-0.02533	0.20493	-0.1207	-0.008392	0.052338	0.14114	-0.046234	-0.01709	-0.012054	0.1181	-0.007172	0.008392	-0.014801	-0.003357	-0.003967
44.454	0.017395	0.056152	0.10376	0.000305	0.078278	-0.079041	0.13458	0.000763	-0.026093	-0.1062	0.030823	0.006256	-0.16586	0.076294	0.55771	-0.010681	0.030212	-0.069733	0.008545	-0.041809	0.028534	0.033417	0.15961	-0.030975	-0.008698	-0.006866	-0.12817	-0.002136	0.024567	-0.014496	0.003204	-0.011597
44.455	0.014343	0.053558	0.038147	0.017395	0.052643	-0.047913	0.061035	0.008087	0.062256	-0.092621	-0.023956	-0.00473	0.031433	0.007782	-0.38513	-0.010681	0.026855	-0.06485	-0.016327	0.057068	0.037384	0.010223	0.11536	-0.048523	-0.001068	-0.001068	-0.082245	-0.002899	-0.11902	-0.031128	0.001984	-0.005493
44.456	0.00473	0.1181	0.027008	0.007935	0.036469	0.00061	0.11643	-0.006561	0.083466	-0.080261	-0.013428	-0.001831	0.21179	-0.042419	-0.27039	-0.015564	0.019073	-0.062103	-0.068054	0.18021	0.053101	0.005188	0.080719	-0.039368	-0.009613	-0.014954	0.017242	-0.002747	-0.2301	-0.052643	0.004272	-0.00946
44.457	0.005646	0.11124	0.10956	0.014038	0.036926	0.01297	0.1181	0.009613	0.04303	-0.066833	0.047607	0.014496	0.1796	0.019836	-0.43198	-0.013885	-0.012207	-0.074768	-0.067139	0.22736	0.022736	0.023499	0.003357	-0.034637	-0.009766	-0.011597	-0.021667	-0.00351	-0.22797	-0.037231	0.00061	0.000305
44.458	0.006409	0.12207	0.15305	0.0177	0.064697	0.039063	0.12131	0.014343	0.000305	0.021515	0.064087	0.005951	-0.045471	0.03067	-0.18249	-0.006866	-0.030365	-0.087128	0.066681	0.29755	-0.0177	0.029755	0.020752	-0.05188	-0.006714	-0.002899	-0.028076	-0.003815	-0.13489	-0.026093	0.012817	-0.002441
44.459	-0.00061	0.090027	-0.005646	0.002441	0.035248	0.035553	0.092926	0.011597	-0.00061	0.10452	0.067139	0.00885	-0.06897	0.017548	-0.099792	-0.000763	-0.019684	-0.067291	0.00473	0.30701	-0.068207	0.027313	0.021515	-0.040131	-0.010223	-0.001373	-0.079803	-0.001984	-0.10513	-0.011749	-0.000458	-0.005798
44.46	-0.003967	0.11505	-0.047302	0.000305	0.012512	0.018463	0.076599	0.007477	0.003052	0.16983	0.071869	0.008392	0.15091	-0.09552	-0.10742	-0.00824	-0.023651	-0.074463	0.031433	0.15823	-0.022888	0.002594	-0.033112	-0.09079	-0.040131	-0.00061	-0.045166	-0.002899	-0.095673	-0.063934	-0.001831	0.001984
44.461	0.005035	0.097504	0.017548	-0.013123	0.003815	0.02594	0.091858	0.013885	-0.005341	0.14481	0.14542	0.00824	0.80994	-0.13565	0.012665	-0.003204	-0.025024	-0.072327	0.048981	-0.11826	-0.018921	-0.000305	-0.13382	-0.11688	-0.014496	-0.001831	0.074921	-0.001068	-0.071259	-0.085449	-0.000458	-0.004578
44.462	0.007935	0.072784	-0.005341	-0.012817	0.006409	0.024109	0.079346	0.019684	-0.010071	0.086212	0.18005	0.002289	0.17395	-0.16205	0.071716	-0.001526	-0.002136	-0.075378	0.13138	-0.3006	-0.005188	-0.02533	-0.096741	-0.074768	-0.021973	-0.00351	0.22049	-0.002136	-0.072784	-0.076447	0.003357	-0.009003
44.463	-0.000305	0.070496	-0.018768	-0.003052	0.007629	0.007782	0.070496	0.013428	0.033264	0.13062	0.12161	0.007782	0.1004	-0.086365	0.063934	-0.014801	0.00351	-0.052032	0.18082	-0.15411	0.001526	-0.042419	-0.11688	-0.094757	-0.015564	-0.003204	0.13947	-0.000153	-0.02533	-0.071869	-0.000916	-0.014954
44.464	0.001678	0.086212	0.031281	0.002899	0.019531	-0.035095	0.052948	0.016174	0.066528	0.070648	-0.11948	0.005188	0.058136	0.029602	-0.040894	-0.003967	-0.002289	-0.065765	0.13351	0.08728	-0.021057	-0.001068	-0.093994	-0.0737	-0.019226	-0.009155	-0.31998	-0.004578	0.080872	-0.014191	0.001831	-0.010223
44.465	-0.002136	0.10834	0.056458	-0.001984	0.03952	-0.071564	0.049133	0.023499	0.074615	0.052643	-0.22888	0.008392	-0.16098	0.033417	-0.022888	-0.005798	-0.00351	-0.059509	0.10773	0.22064	-0.021973	0.026398	-0.1059	-0.072327	-0.022736	0	-0.4155	-0.006866	0.18845	0.023041	0.00061	-0.013733
44.466	-0.001373	0.08667	-0.009766	-0.007172	0.028381	-0.060883	0.067139	0.024872	0.084839	0.061951	-0.13702	0.00946	-0.17197	-0.10254	-0.001678	-0.007019	-0.020752	-0.035248	0.13718	0.20889	-0.09903	0.081635	-0.089874	-0.052032	-0.002747	0.001068	-0.14801	0.001526	0.086365	0.06134	-0.005341	-0.007935
44.467	-0.001984	0.062256	0.10132	-0.012817	0.026245	-0.10254	0.061951	0.012512	0.14435	0.048523	-0.10696	-0.002899	-0.26321	-0.25559	0.039215	0.001831	-0.011749	-0.037537	0.053864	0.08194	-0.12299	0.092468	-0.06073	-0.055389	0.005188	0.000916	0.25742	-0.005798	0.048981	0.055389	-0.00061	-0.013275
44.468	0.002899	0.11307	0.084534	-0.008087	0.015564	-0.073395	0.10407	0.006104	0.053101	-0.003662	-0.045471	0.007324	-0.15945	-0.17578	0.096741	-0.006714	-0.004425	-0.031128	-0.002899	-0.072937	-0.18677	0.083618	-0.086823	0.027924	0.022888	0.005951	0.22064	-0.003967	0.4805	0.033569	-0.000305	0.000763
44.469	0.00351	0.043793	-0.012207	-0.005646	0.005188	0.027771	0.12054	-0.003815	0.14984	-0.043335	0.031128	0.003052	-0.11215	-0.016937	0.076904	-0.013733	0.012665	-0.028534	0.053101	-0.12726	-0.16129	0.061951	-0.053558	0.014191	0.018921	0.009003	0.091705	-0.011139	0.59097	0.056458	0.000305	-0.011902
44.47	-0.002441	0.032959	-0.074615	0.00885	-0.02655	0.09964	0.074005	-0.008087	0.046692	-0.046387	0.041656	0.011444	0.0177	0.090027	0.052795	-0.006561	0.014954	-0.015411	0.043182	-0.13336	-0.006561	0.033722	-0.03067	-0.027008	0.01236	0.008545	0.074615	-0.005493	-0.098572	0.011139	-0.000305	-0.007935
44.471	-0.001373	0.00885	0.033569	0.010986	-0.085144	0.096588	0.009155	-0.015717	-0.1297	-0.031281	0.13184	0.00412	-0.19638	0.13031	0.20767	-0.011902	-0.006714	-0.035553	-0.042725	-0.11993	0.21301	0.004272	-0.040131	-0.019379	0.012665	0.005646	0.057526	-0.003357	-0.73578	-0.019226	0	0.000153
44.472	0.009308	-0.018311	-0.025787	0.014648	-0.074158	0.041809	0.025177	-0.014496	-0.091705	-0.027008	0.15671	0.006104	-0.19516	0.2005	0.47531	-0.010071	-0.020294	-0.033112	-0.080566	-0.11215	0.19943	-0.032349	-0.028992	-0.00412	0.009308	0.004425	0.003967	-0.00351	-0.31982	0.091095	-0.001068	-0.001373
44.473	0.003815	0.001068	0.007019	0.036163	-0.015106	-0.033875	0.036163	-0.005035	-0.021973	-0.035553	-0.10025	0.007782	0.085449	0.22415	0.21866	0.004425	-0.043488	-0.012207	0.047913	-0.096436	0.042877	-0.044403	-0.025177	-0.026398	-0.006714	0.002594	0.005646	-0.004272	0.045013	0.074463	-0.001221	0.002136
44.474	0.005188	-0.023041	0.029449	0.030975	0.072632	-0.013885	0.061493	0.006714	0.022736	-0.023651	-0.024719	0.009155	-0.041351	0.22568	-0.11292	0.011902	-0.032349	-0.036163	0.085144	0.059509	-0.13092	0.014038	-0.037231	-0.055084	-0.004883	0.015869	-0.11185	-0.006714	0.2449	-0.042419	-0.000305	0.000458
44.475	0.004272	0.015564	0.21835	0.027466	0.011902	-0.02655	0.098267	0.01297	0.049286	-0.011597	-0.051422	0.010223	0.13504	0.11444	-0.25726	-0.006256	0.007782	-0.019836	0.059509	0.1561	-0.24155	0.030823	0.057678	-0.088043	-0.015717	0.007172	-0.19196	-0.000458	0.19119	-0.004883	0.002594	0.000763
44.476	0.003052	-0.026703	0.004425	0.006714	0.002899	-0.041046	0.14038	0.016632	0.075378	-0.007782	-0.17334	0.006714	0.19562	-0.024719	-0.53757	-0.007172	0.075073	-0.021973	-0.057678	0.11246	-0.26215	0.034943	0.023956	-0.089264	-0.03067	0.005646	-0.11078	-0.003357	0.023651	-0.014191	0.001984	0.000763
44.477	0.00412	-0.034485	-0.010529	-0.029907	0.023804	0.014496	0.1149	0.014648	0.045929	-0.010376	-0.21774	0.01236	0.066986	-0.021515	-0.31952	-0.007782	0.060883	-0.055695	-0.12543	0.06424	-0.20645	0.009766	0.095978	-0.11261	-0.023499	-0.001068	0.047455	-0.003662	-0.15808	-0.004425	0.000916	-0.011597
44.478	-0.004578	-0.023804	0.083008	-0.022583	0.003967	0.065918	0.10544	0.019531	0.065613	-0.016022	0.17731	0.008392	0.052338	0.034637	0.053101	-0.001526	0.012512	-0.045624	-0.047455	-0.001068	-0.11246	-0.015106	0.076752	-0.11017	-0.023651	-0.004272	0.24277	-0.00473	-0.25955	-0.004272	0.000153	-0.005798
44.479	-0.003052	-0.002594	0.084686	-0.010834	-0.037231	0.0177	0.034332	0.005951	0.10254	-0.009308	0.30518	0.006104	0.14893	0.060883	0.31296	-0.001068	-0.024872	0.03952	0.040283	-0.036621	0.29053	-0.025482	0.112	-0.093231	-0.015717	0.001831	0.23651	0.003204	-0.20752	-0.020599	0.001678	-0.010834
44.48	-0.007629	-0.009918	0.002594	-0.015259	-0.000763	-0.030365	0.003052	0.034485	0.097504	0.03418	0.24857	-0.000305	0.20126	0.043488	0.023499	0.002899	0.062408	0.042267	0.13275	0.042572	0.19531	-0.058746	0.12894	-0.13168	-0.02655	0.00061	0.049591	-0.005646	0.027008	-0.027618	0.000153	-0.011902
44.481	-0.00473	-0.035553	-0.020752	-0.022278	0.027313	-0.062408	0.030823	0.016937	0.061188	0.01297	-0.057526	0.010071	0.14175	-0.040741	-0.15564	-0.003204	0.12573	0.020905	0.07019	0.028534	0.039978	-0.051575	0.15121	-0.14954	-0.041504	-0.006866	-0.020142	-0.002441	0.3894	-0.026398	0.000763	-0.014648
44.482	0.007629	0.006256	-0.005798	0.000305	0.048828	-0.070038	0.085144	0.010071	0.075836	-0.0354	-0.074158	0.002899	0.062866	-0.029907	-0.18326	-0.007019	0.15595	0.019073	0.14023	-0.097809	-0.041656	-0.046997	0.12726	-0.18143	-0.030212	-0.012817	0.19791	-0.001831	0.33173	-0.032959	-0.000153	-0.007629
44.483	0.022125	-0.023193	0.052185	0.000458	0.10819	-0.070953	0.074921	-0.005493	0.074158	-0.070496	-0.096283	0.011139	-0.12146	0.033569	-0.021667	-0.011902	0.12833	0.001526	0.14099	-0.18646	-0.15182	-0.016785	0.093231	-0.17197	-0.024414	-0.016479	0.47211	-0.00351	-0.34012	-0.0383	-0.001526	-0.001373
44.484	0.026398	-0.015564	0.019073	0.024109	0.05188	-0.03479	0.09201	-0.005035	0.066223	-0.044708	-0.072327	0.002594	-0.42374	0.10513	-0.057831	-0.016785	0.071259	-0.012665	-0.023651	-0.15335	-0.12909	0.031128	0.056915	-0.12909	-0.027618	-0.024414	0.58441	0.009766	-0.36346	-0.074005	0.003662	-0.003052
44.485	0.037231	-0.024567	0.013885	0.024872	0.080719	0.010681	0.12421	-0.00061	0.05661	-0.0177	-0.098572	0.009766	-0.086975	0.012054	-0.061951	0.001831	0.007172	-0.024414	-0.37079	0.047913	-0.25269	0.032806	0.030823	-0.12375	-0.012512	-0.034637	0.51209	-0.00473	-0.046997	-0.043335	0.005035	0.003357
44.486	0.022125	0.015106	0.00824	0.009155	0.049438	0.036926	0.14328	0.006409	0.037689	-0.005951	-0.057831	-0.003052	-0.000763	-0.15518	-0.005493	0.01358	-0.065918	-0.02533	-0.20554	0.16388	-0.068512	0.099487	0.030212	-0.086212	-0.000916	-0.031433	0.37201	-0.002289	0.21194	0.000305	0.001373	-0.005951
44.487	0.019989	0.033875	-0.039063	0.009766	0.025635	0.040894	0.1889	-0.001221	0.019836	0.000763	-0.018005	0.001221	-0.044403	-0.24857	-0.037537	-0.009766	-0.079041	-0.046082	-0.10086	0.24277	0.28076	0.098419	0.039215	-0.0383	0.031433	-0.02533	-0.044403	-0.005951	0.1294	-0.021973	0.003662	-0.009308
44.488	0.017548	0.023041	-0.12146	-0.001984	0.021515	0.008087	0.20783	0.002899	-0.014343	0.005798	0.026703	0.00061	-0.1915	-0.20599	0.012512	-0.009308	-0.054779	-0.052032	-0.29266	0.22949	0.083008	0.051575	0.043793	-0.085754	0.020599	-0.018311	-0.38071	0.005188	0.064545	-0.035248	0.002289	-0.003662
